<?xml version="1.0" encoding="UTF-8" standalone="no"?>
<svg xmlns="http://www.w3.org/2000/svg" version="1.0" width="991.22595" height="1000.0" id="C:\1-uniform_6.svg">
<!-- X Coordinate transform: fx(x)=(x+96.90698)*0.8132709-->
<!-- Y Coordinate transform: fy(y)=(1127.3013-y)*0.8132709 -->
<!-- Flac geometry view -->
<g style="opacity:1.0;fill:#ffff00;fill-opacity:1;stroke:#000000;stroke-width:2.4780648;stroke-opacity:0.80;">  <!-- 3-sided blocks -->
<path d="M 485.447,510.166 450.231,489.834 485.447,469.502 Z" />
<path d="M 526.111,510.166 561.326,489.834 526.111,469.502 Z" />
<path d="M 465.115,545.382 429.9,565.713 429.9,525.05 Z" />
<path d="M 546.442,545.382 581.658,525.05 581.658,565.713 Z" />
<path d="M 485.447,580.597 485.447,621.261 450.231,600.929 Z" />
<path d="M 429.9,454.618 465.115,434.287 429.9,413.955 Z" />
<path d="M 526.111,580.597 561.326,600.929 526.111,621.261 Z" />
<path d="M 546.442,434.287 581.658,413.955 581.658,454.618 Z" />
<path d="M 389.236,565.713 354.02,545.382 389.236,525.05 Z" />
<path d="M 389.236,454.618 354.02,434.287 389.236,413.955 Z" />
<path d="M 485.447,399.071 450.231,378.739 485.447,358.407 Z" />
<path d="M 622.322,525.05 657.537,545.382 622.322,565.713 Z" />
<path d="M 526.111,399.071 561.326,378.739 526.111,358.407 Z" />
<path d="M 622.322,454.618 657.537,434.287 622.322,413.955 Z" />
<path d="M 465.115,656.476 429.9,676.808 429.9,636.145 Z" />
<path d="M 368.904,600.929 333.689,621.261 333.689,580.597 Z" />
<path d="M 368.904,489.834 333.689,510.166 333.689,469.502 Z" />
<path d="M 581.658,636.145 581.658,676.808 546.442,656.476 Z" />
<path d="M 642.653,489.834 677.869,469.502 677.869,510.166 Z" />
<path d="M 642.653,600.929 677.869,580.597 677.869,621.261 Z" />
<path d="M 485.447,691.692 485.447,732.356 450.231,712.024 Z" />
<path d="M 389.236,636.145 389.236,676.808 354.02,656.476 Z" />
<path d="M 333.689,399.071 368.904,378.739 333.689,358.407 Z" />
<path d="M 429.9,343.524 465.115,323.192 429.9,302.86 Z" />
<path d="M 622.322,636.145 657.537,656.476 622.322,676.808 Z" />
<path d="M 526.111,691.692 561.326,712.024 526.111,732.356 Z" />
<path d="M 546.442,323.192 581.658,302.86 581.658,343.524 Z" />
<path d="M 642.653,378.739 677.869,358.407 677.869,399.071 Z" />
<path d="M 293.025,621.261 257.809,600.929 293.025,580.597 Z" />
<path d="M 293.025,510.166 257.809,489.834 293.025,469.502 Z" />
<path d="M 293.025,399.071 257.809,378.739 293.025,358.407 Z" />
<path d="M 389.236,343.524 354.02,323.192 389.236,302.86 Z" />
<path d="M 485.447,287.976 450.231,267.644 485.447,247.313 Z" />
<path d="M 718.533,469.502 753.748,489.834 718.533,510.166 Z" />
<path d="M 718.533,580.597 753.748,600.929 718.533,621.261 Z" />
<path d="M 526.111,287.976 561.326,267.644 526.111,247.313 Z" />
<path d="M 622.322,343.524 657.537,323.192 622.322,302.86 Z" />
<path d="M 718.533,399.071 753.748,378.739 718.533,358.407 Z" />
<path d="M 465.115,767.571 429.9,787.903 429.9,747.24 Z" />
<path d="M 368.904,712.024 333.689,732.356 333.689,691.692 Z" />
<path d="M 272.693,656.476 237.478,676.808 237.478,636.145 Z" />
<path d="M 272.693,545.382 237.478,565.713 237.478,525.05 Z" />
<path d="M 272.693,434.287 237.478,454.618 237.478,413.955 Z" />
<path d="M 677.869,732.356 642.653,712.024 677.869,691.692 Z" />
<path d="M 581.658,787.903 546.442,767.571 581.658,747.24 Z" />
<path d="M 774.08,454.618 738.864,434.287 774.08,413.955 Z" />
<path d="M 774.08,565.713 738.864,545.382 774.08,525.05 Z" />
<path d="M 774.08,676.808 738.864,656.476 774.08,636.145 Z" />
<path d="M 485.447,843.451 450.231,823.119 485.447,802.787 Z" />
<path d="M 389.236,787.903 354.02,767.571 389.236,747.24 Z" />
<path d="M 293.025,732.356 257.809,712.024 293.025,691.692 Z" />
<path d="M 237.478,302.86 272.693,323.192 237.478,343.524 Z" />
<path d="M 333.689,247.313 368.904,267.644 333.689,287.976 Z" />
<path d="M 429.9,191.765 465.115,212.097 429.9,232.429 Z" />
<path d="M 753.748,712.024 718.533,732.356 718.533,691.692 Z" />
<path d="M 622.322,747.24 657.537,767.571 622.322,787.903 Z" />
<path d="M 526.111,802.787 561.326,823.119 526.111,843.451 Z" />
<path d="M 546.442,212.097 581.658,191.765 581.658,232.429 Z" />
<path d="M 642.653,267.644 677.869,247.313 677.869,287.976 Z" />
<path d="M 738.864,323.192 774.08,302.86 774.08,343.524 Z" />
<path d="M 196.814,676.808 161.598,656.476 196.814,636.145 Z" />
<path d="M 196.814,565.713 161.598,545.382 196.814,525.05 Z" />
<path d="M 196.814,454.618 161.598,434.287 196.814,413.955 Z" />
<path d="M 196.814,343.524 161.598,323.192 196.814,302.86 Z" />
<path d="M 293.025,287.976 257.809,267.644 293.025,247.313 Z" />
<path d="M 389.236,232.429 354.02,212.097 389.236,191.765 Z" />
<path d="M 485.447,176.881 450.231,156.549 485.447,136.218 Z" />
<path d="M 814.744,413.955 849.959,434.287 814.744,454.618 Z" />
<path d="M 814.744,525.05 849.959,545.382 814.744,565.713 Z" />
<path d="M 814.744,636.145 849.959,656.476 814.744,676.808 Z" />
<path d="M 526.111,176.881 561.326,156.549 526.111,136.218 Z" />
<path d="M 622.322,232.429 657.537,212.097 622.322,191.765 Z" />
<path d="M 718.533,287.976 753.748,267.644 718.533,247.313 Z" />
<path d="M 814.744,343.524 849.959,323.192 814.744,302.86 Z" />
<path d="M 465.115,878.666 429.9,898.998 429.9,858.334 Z" />
<path d="M 333.689,843.451 333.689,802.787 368.904,823.119 Z" />
<path d="M 237.478,787.903 237.478,747.24 272.693,767.571 Z" />
<path d="M 141.267,691.692 176.482,712.024 141.267,732.356 Z" />
<path d="M 141.267,580.597 176.482,600.929 141.267,621.261 Z" />
<path d="M 141.267,469.502 176.482,489.834 141.267,510.166 Z" />
<path d="M 141.267,358.407 176.482,378.739 141.267,399.071 Z" />
<path d="M 774.08,787.903 738.864,767.571 774.08,747.24 Z" />
<path d="M 677.869,843.451 642.653,823.119 677.869,802.787 Z" />
<path d="M 581.658,898.998 546.442,878.666 581.658,858.334 Z" />
<path d="M 870.291,399.071 835.075,378.739 870.291,358.407 Z" />
<path d="M 870.291,510.166 835.075,489.834 870.291,469.502 Z" />
<path d="M 870.291,621.261 835.075,600.929 870.291,580.597 Z" />
<path d="M 870.291,732.356 835.075,712.024 870.291,691.692 Z" />
<path d="M 450.231,934.214 485.447,913.882 485.447,954.545 Z" />
<path d="M 354.02,878.666 389.236,858.334 389.236,898.998 Z" />
<path d="M 257.809,823.119 293.025,802.787 293.025,843.451 Z" />
<path d="M 161.598,767.571 196.814,747.24 196.814,787.903 Z" />
<path d="M 141.267,247.313 176.482,267.644 141.267,287.976 Z" />
<path d="M 237.478,191.765 272.693,212.097 237.478,232.429 Z" />
<path d="M 333.689,136.218 368.904,156.549 333.689,176.881 Z" />
<path d="M 429.9,80.67 465.115,101.002 429.9,121.334 Z" />
<path d="M 814.744,787.903 849.959,767.571 814.744,747.24 Z" />
<path d="M 718.533,843.451 753.748,823.119 718.533,802.787 Z" />
<path d="M 622.322,898.998 657.537,878.666 622.322,858.334 Z" />
<path d="M 526.111,954.545 561.326,934.214 526.111,913.882 Z" />
<path d="M 581.658,80.67 581.658,121.334 546.442,101.002 Z" />
<path d="M 677.869,136.218 677.869,176.881 642.653,156.549 Z" />
<path d="M 774.08,191.765 774.08,232.429 738.864,212.097 Z" />
<path d="M 870.291,247.313 870.291,287.976 835.075,267.644 Z" />
<path d="M 910.955,954.545 946.17,934.214 910.955,913.882 Z" />
<path d="M 65.387,712.024 100.603,691.692 100.603,732.356 Z" />
<path d="M 65.387,600.929 100.603,580.597 100.603,621.261 Z" />
<path d="M 65.387,489.834 100.603,469.502 100.603,510.166 Z" />
<path d="M 65.387,378.739 100.603,358.407 100.603,399.071 Z" />
<path d="M 100.603,247.313 100.603,287.976 65.387,267.644 Z" />
<path d="M 196.814,191.765 196.814,232.429 161.598,212.097 Z" />
<path d="M 293.025,136.218 293.025,176.881 257.809,156.549 Z" />
<path d="M 389.236,80.67 389.236,121.334 354.02,101.002 Z" />
<path d="M 65.387,934.214 100.603,913.882 100.603,954.545 Z" />
<path d="M 910.955,399.071 946.17,378.739 910.955,358.407 Z" />
<path d="M 910.955,510.166 946.17,489.834 910.955,469.502 Z" />
<path d="M 910.955,621.261 946.17,600.929 910.955,580.597 Z" />
<path d="M 910.955,732.356 946.17,712.024 910.955,691.692 Z" />
<path d="M 657.537,101.002 622.322,121.334 622.322,80.67 Z" />
<path d="M 753.748,156.549 718.533,176.881 718.533,136.218 Z" />
<path d="M 849.959,212.097 814.744,232.429 814.744,191.765 Z" />
<path d="M 910.955,247.313 946.17,267.644 910.955,287.976 Z" />
<path d="M 333.689,954.545 333.689,913.882 368.904,934.214 Z" />
<path d="M 237.478,898.998 237.478,858.334 272.693,878.666 Z" />
<path d="M 141.267,843.451 141.267,802.787 176.482,823.119 Z" />
<path d="M 45.056,747.24 80.271,767.571 45.056,787.903 Z" />
<path d="M 45.056,636.145 80.271,656.476 45.056,676.808 Z" />
<path d="M 45.056,525.05 80.271,545.382 45.056,565.713 Z" />
<path d="M 45.056,413.955 80.271,434.287 45.056,454.618 Z" />
<path d="M 45.056,302.86 80.271,323.192 45.056,343.524 Z" />
<path d="M 870.291,843.451 835.075,823.119 870.291,802.787 Z" />
<path d="M 774.08,898.998 738.864,878.666 774.08,858.334 Z" />
<path d="M 677.869,954.545 642.653,934.214 677.869,913.882 Z" />
<path d="M 45.056,80.67 80.271,101.002 45.056,121.334 Z" />
<path d="M 257.809,934.214 293.025,913.882 293.025,954.545 Z" />
<path d="M 161.598,878.666 196.814,858.334 196.814,898.998 Z" />
<path d="M 65.387,823.119 100.603,802.787 100.603,843.451 Z" />
<path d="M 910.955,136.218 946.17,156.549 910.955,176.881 Z" />
<path d="M 849.959,101.002 814.744,121.334 814.744,80.67 Z" />
<path d="M 870.291,954.545 835.075,934.214 870.291,913.882 Z" />
<path d="M 45.056,191.765 80.271,212.097 45.056,232.429 Z" />
<path d="M 141.267,136.218 176.482,156.549 141.267,176.881 Z" />
<path d="M 237.478,80.67 272.693,101.002 237.478,121.334 Z" />
<path d="M 910.955,843.451 946.17,823.119 910.955,802.787 Z" />
<path d="M 814.744,898.998 849.959,878.666 814.744,858.334 Z" />
<path d="M 718.533,954.545 753.748,934.214 718.533,913.882 Z" />
<path d="M 196.814,80.67 196.814,121.334 161.598,101.002 Z" />
<path d="M 774.08,80.67 774.08,121.334 738.864,101.002 Z" />
<path d="M 870.291,136.218 870.291,176.881 835.075,156.549 Z" />
<path d="M 100.603,136.218 100.603,176.881 65.387,156.549 Z" />
<path d="M 45.056,898.998 45.056,858.334 80.271,878.666 Z" />
<path d="M 141.267,954.545 141.267,913.882 176.482,934.214 Z" />
</g>
<g style="opacity:1.0;fill:#ff0000;fill-opacity:1;stroke:#000000;stroke-width:2.4780648;stroke-opacity:0.80;">  <!-- 4-sided blocks -->
<path d="M 485.447,510.166 485.447,469.502 526.111,469.502 526.111,510.166 Z" />
<path d="M 485.447,510.166 465.115,545.382 429.9,525.05 450.231,489.834 Z" />
<path d="M 526.111,510.166 561.326,489.834 581.658,525.05 546.442,545.382 Z" />
<path d="M 465.115,545.382 485.447,580.597 450.231,600.929 429.9,565.713 Z" />
<path d="M 450.231,489.834 429.9,454.618 465.115,434.287 485.447,469.502 Z" />
<path d="M 546.442,545.382 581.658,565.713 561.326,600.929 526.111,580.597 Z" />
<path d="M 526.111,469.502 546.442,434.287 581.658,454.618 561.326,489.834 Z" />
<path d="M 485.447,580.597 526.111,580.597 526.111,621.261 485.447,621.261 Z" />
<path d="M 429.9,565.713 389.236,565.713 389.236,525.05 429.9,525.05 Z" />
<path d="M 429.9,454.618 389.236,454.618 389.236,413.955 429.9,413.955 Z" />
<path d="M 465.115,434.287 429.9,413.955 450.231,378.739 485.447,399.071 Z" />
<path d="M 581.658,525.05 622.322,525.05 622.322,565.713 581.658,565.713 Z" />
<path d="M 546.442,434.287 526.111,399.071 561.326,378.739 581.658,413.955 Z" />
<path d="M 581.658,454.618 581.658,413.955 622.322,413.955 622.322,454.618 Z" />
<path d="M 485.447,621.261 465.115,656.476 429.9,636.145 450.231,600.929 Z" />
<path d="M 389.236,565.713 368.904,600.929 333.689,580.597 354.02,545.382 Z" />
<path d="M 389.236,525.05 354.02,545.382 333.689,510.166 368.904,489.834 Z" />
<path d="M 389.236,454.618 368.904,489.834 333.689,469.502 354.02,434.287 Z" />
<path d="M 485.447,399.071 485.447,358.407 526.111,358.407 526.111,399.071 Z" />
<path d="M 561.326,600.929 581.658,636.145 546.442,656.476 526.111,621.261 Z" />
<path d="M 622.322,525.05 642.653,489.834 677.869,510.166 657.537,545.382 Z" />
<path d="M 622.322,565.713 657.537,545.382 677.869,580.597 642.653,600.929 Z" />
<path d="M 622.322,454.618 657.537,434.287 677.869,469.502 642.653,489.834 Z" />
<path d="M 465.115,656.476 485.447,691.692 450.231,712.024 429.9,676.808 Z" />
<path d="M 429.9,636.145 429.9,676.808 389.236,676.808 389.236,636.145 Z" />
<path d="M 368.904,600.929 389.236,636.145 354.02,656.476 333.689,621.261 Z" />
<path d="M 354.02,434.287 333.689,399.071 368.904,378.739 389.236,413.955 Z" />
<path d="M 450.231,378.739 429.9,343.524 465.115,323.192 485.447,358.407 Z" />
<path d="M 581.658,636.145 622.322,636.145 622.322,676.808 581.658,676.808 Z" />
<path d="M 546.442,656.476 581.658,676.808 561.326,712.024 526.111,691.692 Z" />
<path d="M 642.653,600.929 677.869,621.261 657.537,656.476 622.322,636.145 Z" />
<path d="M 526.111,358.407 546.442,323.192 581.658,343.524 561.326,378.739 Z" />
<path d="M 622.322,413.955 642.653,378.739 677.869,399.071 657.537,434.287 Z" />
<path d="M 485.447,691.692 526.111,691.692 526.111,732.356 485.447,732.356 Z" />
<path d="M 333.689,621.261 293.025,621.261 293.025,580.597 333.689,580.597 Z" />
<path d="M 333.689,510.166 293.025,510.166 293.025,469.502 333.689,469.502 Z" />
<path d="M 333.689,399.071 293.025,399.071 293.025,358.407 333.689,358.407 Z" />
<path d="M 368.904,378.739 333.689,358.407 354.02,323.192 389.236,343.524 Z" />
<path d="M 429.9,343.524 389.236,343.524 389.236,302.86 429.9,302.86 Z" />
<path d="M 465.115,323.192 429.9,302.86 450.231,267.644 485.447,287.976 Z" />
<path d="M 677.869,469.502 718.533,469.502 718.533,510.166 677.869,510.166 Z" />
<path d="M 677.869,580.597 718.533,580.597 718.533,621.261 677.869,621.261 Z" />
<path d="M 546.442,323.192 526.111,287.976 561.326,267.644 581.658,302.86 Z" />
<path d="M 581.658,343.524 581.658,302.86 622.322,302.86 622.322,343.524 Z" />
<path d="M 642.653,378.739 622.322,343.524 657.537,323.192 677.869,358.407 Z" />
<path d="M 677.869,399.071 677.869,358.407 718.533,358.407 718.533,399.071 Z" />
<path d="M 485.447,732.356 465.115,767.571 429.9,747.24 450.231,712.024 Z" />
<path d="M 389.236,676.808 368.904,712.024 333.689,691.692 354.02,656.476 Z" />
<path d="M 293.025,621.261 272.693,656.476 237.478,636.145 257.809,600.929 Z" />
<path d="M 293.025,580.597 257.809,600.929 237.478,565.713 272.693,545.382 Z" />
<path d="M 293.025,510.166 272.693,545.382 237.478,525.05 257.809,489.834 Z" />
<path d="M 293.025,469.502 257.809,489.834 237.478,454.618 272.693,434.287 Z" />
<path d="M 293.025,399.071 272.693,434.287 237.478,413.955 257.809,378.739 Z" />
<path d="M 485.447,287.976 485.447,247.313 526.111,247.313 526.111,287.976 Z" />
<path d="M 657.537,656.476 677.869,691.692 642.653,712.024 622.322,676.808 Z" />
<path d="M 561.326,712.024 581.658,747.24 546.442,767.571 526.111,732.356 Z" />
<path d="M 774.08,454.618 753.748,489.834 718.533,469.502 738.864,434.287 Z" />
<path d="M 774.08,525.05 738.864,545.382 718.533,510.166 753.748,489.834 Z" />
<path d="M 774.08,565.713 753.748,600.929 718.533,580.597 738.864,545.382 Z" />
<path d="M 774.08,636.145 738.864,656.476 718.533,621.261 753.748,600.929 Z" />
<path d="M 774.08,413.955 738.864,434.287 718.533,399.071 753.748,378.739 Z" />
<path d="M 450.231,823.119 429.9,787.903 465.115,767.571 485.447,802.787 Z" />
<path d="M 389.236,787.903 389.236,747.24 429.9,747.24 429.9,787.903 Z" />
<path d="M 354.02,767.571 333.689,732.356 368.904,712.024 389.236,747.24 Z" />
<path d="M 293.025,732.356 293.025,691.692 333.689,691.692 333.689,732.356 Z" />
<path d="M 257.809,712.024 237.478,676.808 272.693,656.476 293.025,691.692 Z" />
<path d="M 272.693,323.192 293.025,358.407 257.809,378.739 237.478,343.524 Z" />
<path d="M 368.904,267.644 389.236,302.86 354.02,323.192 333.689,287.976 Z" />
<path d="M 465.115,212.097 485.447,247.313 450.231,267.644 429.9,232.429 Z" />
<path d="M 718.533,732.356 677.869,732.356 677.869,691.692 718.533,691.692 Z" />
<path d="M 622.322,747.24 642.653,712.024 677.869,732.356 657.537,767.571 Z" />
<path d="M 581.658,787.903 581.658,747.24 622.322,747.24 622.322,787.903 Z" />
<path d="M 526.111,802.787 546.442,767.571 581.658,787.903 561.326,823.119 Z" />
<path d="M 774.08,676.808 753.748,712.024 718.533,691.692 738.864,656.476 Z" />
<path d="M 546.442,212.097 581.658,232.429 561.326,267.644 526.111,247.313 Z" />
<path d="M 642.653,267.644 677.869,287.976 657.537,323.192 622.322,302.86 Z" />
<path d="M 738.864,323.192 774.08,343.524 753.748,378.739 718.533,358.407 Z" />
<path d="M 485.447,843.451 485.447,802.787 526.111,802.787 526.111,843.451 Z" />
<path d="M 196.814,676.808 196.814,636.145 237.478,636.145 237.478,676.808 Z" />
<path d="M 196.814,565.713 196.814,525.05 237.478,525.05 237.478,565.713 Z" />
<path d="M 196.814,454.618 196.814,413.955 237.478,413.955 237.478,454.618 Z" />
<path d="M 196.814,343.524 196.814,302.86 237.478,302.86 237.478,343.524 Z" />
<path d="M 237.478,302.86 257.809,267.644 293.025,287.976 272.693,323.192 Z" />
<path d="M 293.025,287.976 293.025,247.313 333.689,247.313 333.689,287.976 Z" />
<path d="M 333.689,247.313 354.02,212.097 389.236,232.429 368.904,267.644 Z" />
<path d="M 389.236,232.429 389.236,191.765 429.9,191.765 429.9,232.429 Z" />
<path d="M 429.9,191.765 450.231,156.549 485.447,176.881 465.115,212.097 Z" />
<path d="M 774.08,454.618 774.08,413.955 814.744,413.955 814.744,454.618 Z" />
<path d="M 774.08,565.713 774.08,525.05 814.744,525.05 814.744,565.713 Z" />
<path d="M 774.08,676.808 774.08,636.145 814.744,636.145 814.744,676.808 Z" />
<path d="M 546.442,212.097 526.111,176.881 561.326,156.549 581.658,191.765 Z" />
<path d="M 581.658,232.429 581.658,191.765 622.322,191.765 622.322,232.429 Z" />
<path d="M 642.653,267.644 622.322,232.429 657.537,212.097 677.869,247.313 Z" />
<path d="M 677.869,287.976 677.869,247.313 718.533,247.313 718.533,287.976 Z" />
<path d="M 738.864,323.192 718.533,287.976 753.748,267.644 774.08,302.86 Z" />
<path d="M 774.08,343.524 774.08,302.86 814.744,302.86 814.744,343.524 Z" />
<path d="M 485.447,843.451 465.115,878.666 429.9,858.334 450.231,823.119 Z" />
<path d="M 389.236,787.903 368.904,823.119 333.689,802.787 354.02,767.571 Z" />
<path d="M 293.025,732.356 272.693,767.571 237.478,747.24 257.809,712.024 Z" />
<path d="M 196.814,676.808 176.482,712.024 141.267,691.692 161.598,656.476 Z" />
<path d="M 196.814,636.145 161.598,656.476 141.267,621.261 176.482,600.929 Z" />
<path d="M 196.814,565.713 176.482,600.929 141.267,580.597 161.598,545.382 Z" />
<path d="M 196.814,525.05 161.598,545.382 141.267,510.166 176.482,489.834 Z" />
<path d="M 196.814,454.618 176.482,489.834 141.267,469.502 161.598,434.287 Z" />
<path d="M 196.814,413.955 161.598,434.287 141.267,399.071 176.482,378.739 Z" />
<path d="M 196.814,343.524 176.482,378.739 141.267,358.407 161.598,323.192 Z" />
<path d="M 485.447,176.881 485.447,136.218 526.111,136.218 526.111,176.881 Z" />
<path d="M 753.748,712.024 774.08,747.24 738.864,767.571 718.533,732.356 Z" />
<path d="M 657.537,767.571 677.869,802.787 642.653,823.119 622.322,787.903 Z" />
<path d="M 561.326,823.119 581.658,858.334 546.442,878.666 526.111,843.451 Z" />
<path d="M 814.744,413.955 835.075,378.739 870.291,399.071 849.959,434.287 Z" />
<path d="M 814.744,454.618 849.959,434.287 870.291,469.502 835.075,489.834 Z" />
<path d="M 814.744,525.05 835.075,489.834 870.291,510.166 849.959,545.382 Z" />
<path d="M 814.744,565.713 849.959,545.382 870.291,580.597 835.075,600.929 Z" />
<path d="M 814.744,636.145 835.075,600.929 870.291,621.261 849.959,656.476 Z" />
<path d="M 814.744,676.808 849.959,656.476 870.291,691.692 835.075,712.024 Z" />
<path d="M 814.744,343.524 849.959,323.192 870.291,358.407 835.075,378.739 Z" />
<path d="M 465.115,878.666 485.447,913.882 450.231,934.214 429.9,898.998 Z" />
<path d="M 389.236,898.998 389.236,858.334 429.9,858.334 429.9,898.998 Z" />
<path d="M 354.02,878.666 333.689,843.451 368.904,823.119 389.236,858.334 Z" />
<path d="M 293.025,843.451 293.025,802.787 333.689,802.787 333.689,843.451 Z" />
<path d="M 257.809,823.119 237.478,787.903 272.693,767.571 293.025,802.787 Z" />
<path d="M 196.814,787.903 196.814,747.24 237.478,747.24 237.478,787.903 Z" />
<path d="M 161.598,767.571 141.267,732.356 176.482,712.024 196.814,747.24 Z" />
<path d="M 176.482,267.644 196.814,302.86 161.598,323.192 141.267,287.976 Z" />
<path d="M 272.693,212.097 293.025,247.313 257.809,267.644 237.478,232.429 Z" />
<path d="M 368.904,156.549 389.236,191.765 354.02,212.097 333.689,176.881 Z" />
<path d="M 465.115,101.002 485.447,136.218 450.231,156.549 429.9,121.334 Z" />
<path d="M 814.744,787.903 774.08,787.903 774.08,747.24 814.744,747.24 Z" />
<path d="M 753.748,823.119 718.533,802.787 738.864,767.571 774.08,787.903 Z" />
<path d="M 718.533,843.451 677.869,843.451 677.869,802.787 718.533,802.787 Z" />
<path d="M 657.537,878.666 622.322,858.334 642.653,823.119 677.869,843.451 Z" />
<path d="M 622.322,898.998 581.658,898.998 581.658,858.334 622.322,858.334 Z" />
<path d="M 561.326,934.214 526.111,913.882 546.442,878.666 581.658,898.998 Z" />
<path d="M 849.959,767.571 814.744,747.24 835.075,712.024 870.291,732.356 Z" />
<path d="M 581.658,121.334 561.326,156.549 526.111,136.218 546.442,101.002 Z" />
<path d="M 677.869,176.881 657.537,212.097 622.322,191.765 642.653,156.549 Z" />
<path d="M 774.08,232.429 753.748,267.644 718.533,247.313 738.864,212.097 Z" />
<path d="M 870.291,287.976 849.959,323.192 814.744,302.86 835.075,267.644 Z" />
<path d="M 526.111,954.545 485.447,954.545 485.447,913.882 526.111,913.882 Z" />
<path d="M 100.603,691.692 141.267,691.692 141.267,732.356 100.603,732.356 Z" />
<path d="M 100.603,580.597 141.267,580.597 141.267,621.261 100.603,621.261 Z" />
<path d="M 100.603,469.502 141.267,469.502 141.267,510.166 100.603,510.166 Z" />
<path d="M 100.603,358.407 141.267,358.407 141.267,399.071 100.603,399.071 Z" />
<path d="M 100.603,247.313 141.267,247.313 141.267,287.976 100.603,287.976 Z" />
<path d="M 161.598,212.097 196.814,232.429 176.482,267.644 141.267,247.313 Z" />
<path d="M 196.814,191.765 237.478,191.765 237.478,232.429 196.814,232.429 Z" />
<path d="M 257.809,156.549 293.025,176.881 272.693,212.097 237.478,191.765 Z" />
<path d="M 293.025,136.218 333.689,136.218 333.689,176.881 293.025,176.881 Z" />
<path d="M 354.02,101.002 389.236,121.334 368.904,156.549 333.689,136.218 Z" />
<path d="M 389.236,80.67 429.9,80.67 429.9,121.334 389.236,121.334 Z" />
<path d="M 485.447,65.786 465.115,101.002 429.9,80.67 450.231,45.455 Z" />
<path d="M 910.955,399.071 870.291,399.071 870.291,358.407 910.955,358.407 Z" />
<path d="M 910.955,510.166 870.291,510.166 870.291,469.502 910.955,469.502 Z" />
<path d="M 910.955,621.261 870.291,621.261 870.291,580.597 910.955,580.597 Z" />
<path d="M 910.955,732.356 870.291,732.356 870.291,691.692 910.955,691.692 Z" />
<path d="M 581.658,80.67 546.442,101.002 526.111,65.786 561.326,45.455 Z" />
<path d="M 622.322,80.67 622.322,121.334 581.658,121.334 581.658,80.67 Z" />
<path d="M 657.537,101.002 677.869,136.218 642.653,156.549 622.322,121.334 Z" />
<path d="M 718.533,136.218 718.533,176.881 677.869,176.881 677.869,136.218 Z" />
<path d="M 753.748,156.549 774.08,191.765 738.864,212.097 718.533,176.881 Z" />
<path d="M 814.744,191.765 814.744,232.429 774.08,232.429 774.08,191.765 Z" />
<path d="M 849.959,212.097 870.291,247.313 835.075,267.644 814.744,232.429 Z" />
<path d="M 910.955,247.313 910.955,287.976 870.291,287.976 870.291,247.313 Z" />
<path d="M 100.603,65.786 80.271,101.002 45.056,80.67 65.387,45.455 Z" />
<path d="M 333.689,913.882 354.02,878.666 389.236,898.998 368.904,934.214 Z" />
<path d="M 237.478,858.334 257.809,823.119 293.025,843.451 272.693,878.666 Z" />
<path d="M 141.267,802.787 161.598,767.571 196.814,787.903 176.482,823.119 Z" />
<path d="M 45.056,747.24 65.387,712.024 100.603,732.356 80.271,767.571 Z" />
<path d="M 45.056,676.808 80.271,656.476 100.603,691.692 65.387,712.024 Z" />
<path d="M 45.056,636.145 65.387,600.929 100.603,621.261 80.271,656.476 Z" />
<path d="M 45.056,565.713 80.271,545.382 100.603,580.597 65.387,600.929 Z" />
<path d="M 45.056,525.05 65.387,489.834 100.603,510.166 80.271,545.382 Z" />
<path d="M 45.056,454.618 80.271,434.287 100.603,469.502 65.387,489.834 Z" />
<path d="M 45.056,413.955 65.387,378.739 100.603,399.071 80.271,434.287 Z" />
<path d="M 45.056,343.524 80.271,323.192 100.603,358.407 65.387,378.739 Z" />
<path d="M 45.056,302.86 65.387,267.644 100.603,287.976 80.271,323.192 Z" />
<path d="M 835.075,823.119 814.744,787.903 849.959,767.571 870.291,802.787 Z" />
<path d="M 738.864,878.666 718.533,843.451 753.748,823.119 774.08,858.334 Z" />
<path d="M 642.653,934.214 622.322,898.998 657.537,878.666 677.869,913.882 Z" />
<path d="M 870.291,65.786 849.959,101.002 814.744,80.67 835.075,45.455 Z" />
<path d="M 293.025,954.545 293.025,913.882 333.689,913.882 333.689,954.545 Z" />
<path d="M 257.809,934.214 237.478,898.998 272.693,878.666 293.025,913.882 Z" />
<path d="M 196.814,898.998 196.814,858.334 237.478,858.334 237.478,898.998 Z" />
<path d="M 161.598,878.666 141.267,843.451 176.482,823.119 196.814,858.334 Z" />
<path d="M 100.603,843.451 100.603,802.787 141.267,802.787 141.267,843.451 Z" />
<path d="M 65.387,823.119 45.056,787.903 80.271,767.571 100.603,802.787 Z" />
<path d="M 80.271,212.097 100.603,247.313 65.387,267.644 45.056,232.429 Z" />
<path d="M 176.482,156.549 196.814,191.765 161.598,212.097 141.267,176.881 Z" />
<path d="M 272.693,101.002 293.025,136.218 257.809,156.549 237.478,121.334 Z" />
<path d="M 333.689,65.786 368.904,45.455 389.236,80.67 354.02,101.002 Z" />
<path d="M 910.955,843.451 870.291,843.451 870.291,802.787 910.955,802.787 Z" />
<path d="M 849.959,878.666 814.744,858.334 835.075,823.119 870.291,843.451 Z" />
<path d="M 814.744,898.998 774.08,898.998 774.08,858.334 814.744,858.334 Z" />
<path d="M 753.748,934.214 718.533,913.882 738.864,878.666 774.08,898.998 Z" />
<path d="M 718.533,954.545 677.869,954.545 677.869,913.882 718.533,913.882 Z" />
<path d="M 910.955,954.545 870.291,954.545 870.291,913.882 910.955,913.882 Z" />
<path d="M 141.267,65.786 176.482,45.455 196.814,80.67 161.598,101.002 Z" />
<path d="M 80.271,101.002 100.603,136.218 65.387,156.549 45.056,121.334 Z" />
<path d="M 65.387,934.214 45.056,898.998 80.271,878.666 100.603,913.882 Z" />
<path d="M 677.869,65.786 657.537,101.002 622.322,80.67 642.653,45.455 Z" />
<path d="M 774.08,121.334 753.748,156.549 718.533,136.218 738.864,101.002 Z" />
<path d="M 870.291,176.881 849.959,212.097 814.744,191.765 835.075,156.549 Z" />
<path d="M 100.603,954.545 100.603,913.882 141.267,913.882 141.267,954.545 Z" />
<path d="M 835.075,934.214 814.744,898.998 849.959,878.666 870.291,913.882 Z" />
<path d="M 65.387,156.549 100.603,176.881 80.271,212.097 45.056,191.765 Z" />
<path d="M 100.603,136.218 141.267,136.218 141.267,176.881 100.603,176.881 Z" />
<path d="M 161.598,101.002 196.814,121.334 176.482,156.549 141.267,136.218 Z" />
<path d="M 196.814,80.67 237.478,80.67 237.478,121.334 196.814,121.334 Z" />
<path d="M 293.025,65.786 272.693,101.002 237.478,80.67 257.809,45.455 Z" />
<path d="M 774.08,80.67 738.864,101.002 718.533,65.786 753.748,45.455 Z" />
<path d="M 814.744,80.67 814.744,121.334 774.08,121.334 774.08,80.67 Z" />
<path d="M 849.959,101.002 870.291,136.218 835.075,156.549 814.744,121.334 Z" />
<path d="M 910.955,136.218 910.955,176.881 870.291,176.881 870.291,136.218 Z" />
<path d="M 141.267,913.882 161.598,878.666 196.814,898.998 176.482,934.214 Z" />
<path d="M 45.056,858.334 65.387,823.119 100.603,843.451 80.271,878.666 Z" />
</g>
<g style="opacity:1.0;fill:#00ff00;fill-opacity:1;stroke:#000000;stroke-width:2.4780648;stroke-opacity:0.80;">  <!-- 6-sided blocks -->
<path d="M 450.231,489.834 429.9,525.05 389.236,525.05 368.904,489.834 389.236,454.618 429.9,454.618 Z" />
<path d="M 485.447,469.502 465.115,434.287 485.447,399.071 526.111,399.071 546.442,434.287 526.111,469.502 Z" />
<path d="M 561.326,489.834 581.658,454.618 622.322,454.618 642.653,489.834 622.322,525.05 581.658,525.05 Z" />
<path d="M 429.9,565.713 450.231,600.929 429.9,636.145 389.236,636.145 368.904,600.929 389.236,565.713 Z" />
<path d="M 581.658,565.713 622.322,565.713 642.653,600.929 622.322,636.145 581.658,636.145 561.326,600.929 Z" />
<path d="M 485.447,621.261 526.111,621.261 546.442,656.476 526.111,691.692 485.447,691.692 465.115,656.476 Z" />
<path d="M 429.9,413.955 389.236,413.955 368.904,378.739 389.236,343.524 429.9,343.524 450.231,378.739 Z" />
<path d="M 581.658,413.955 561.326,378.739 581.658,343.524 622.322,343.524 642.653,378.739 622.322,413.955 Z" />
<path d="M 354.02,545.382 333.689,580.597 293.025,580.597 272.693,545.382 293.025,510.166 333.689,510.166 Z" />
<path d="M 354.02,434.287 333.689,469.502 293.025,469.502 272.693,434.287 293.025,399.071 333.689,399.071 Z" />
<path d="M 485.447,358.407 465.115,323.192 485.447,287.976 526.111,287.976 546.442,323.192 526.111,358.407 Z" />
<path d="M 657.537,545.382 677.869,510.166 718.533,510.166 738.864,545.382 718.533,580.597 677.869,580.597 Z" />
<path d="M 657.537,434.287 677.869,399.071 718.533,399.071 738.864,434.287 718.533,469.502 677.869,469.502 Z" />
<path d="M 429.9,676.808 450.231,712.024 429.9,747.24 389.236,747.24 368.904,712.024 389.236,676.808 Z" />
<path d="M 333.689,621.261 354.02,656.476 333.689,691.692 293.025,691.692 272.693,656.476 293.025,621.261 Z" />
<path d="M 622.322,747.24 581.658,747.24 561.326,712.024 581.658,676.808 622.322,676.808 642.653,712.024 Z" />
<path d="M 718.533,691.692 677.869,691.692 657.537,656.476 677.869,621.261 718.533,621.261 738.864,656.476 Z" />
<path d="M 526.111,802.787 485.447,802.787 465.115,767.571 485.447,732.356 526.111,732.356 546.442,767.571 Z" />
<path d="M 293.025,287.976 333.689,287.976 354.02,323.192 333.689,358.407 293.025,358.407 272.693,323.192 Z" />
<path d="M 389.236,232.429 429.9,232.429 450.231,267.644 429.9,302.86 389.236,302.86 368.904,267.644 Z" />
<path d="M 581.658,232.429 622.322,232.429 642.653,267.644 622.322,302.86 581.658,302.86 561.326,267.644 Z" />
<path d="M 677.869,287.976 718.533,287.976 738.864,323.192 718.533,358.407 677.869,358.407 657.537,323.192 Z" />
<path d="M 196.814,636.145 176.482,600.929 196.814,565.713 237.478,565.713 257.809,600.929 237.478,636.145 Z" />
<path d="M 196.814,525.05 176.482,489.834 196.814,454.618 237.478,454.618 257.809,489.834 237.478,525.05 Z" />
<path d="M 196.814,413.955 176.482,378.739 196.814,343.524 237.478,343.524 257.809,378.739 237.478,413.955 Z" />
<path d="M 546.442,212.097 526.111,247.313 485.447,247.313 465.115,212.097 485.447,176.881 526.111,176.881 Z" />
<path d="M 774.08,525.05 753.748,489.834 774.08,454.618 814.744,454.618 835.075,489.834 814.744,525.05 Z" />
<path d="M 774.08,636.145 753.748,600.929 774.08,565.713 814.744,565.713 835.075,600.929 814.744,636.145 Z" />
<path d="M 774.08,343.524 814.744,343.524 835.075,378.739 814.744,413.955 774.08,413.955 753.748,378.739 Z" />
<path d="M 450.231,823.119 429.9,858.334 389.236,858.334 368.904,823.119 389.236,787.903 429.9,787.903 Z" />
<path d="M 354.02,767.571 333.689,802.787 293.025,802.787 272.693,767.571 293.025,732.356 333.689,732.356 Z" />
<path d="M 257.809,712.024 237.478,747.24 196.814,747.24 176.482,712.024 196.814,676.808 237.478,676.808 Z" />
<path d="M 718.533,732.356 738.864,767.571 718.533,802.787 677.869,802.787 657.537,767.571 677.869,732.356 Z" />
<path d="M 581.658,787.903 622.322,787.903 642.653,823.119 622.322,858.334 581.658,858.334 561.326,823.119 Z" />
<path d="M 774.08,676.808 814.744,676.808 835.075,712.024 814.744,747.24 774.08,747.24 753.748,712.024 Z" />
<path d="M 485.447,843.451 526.111,843.451 546.442,878.666 526.111,913.882 485.447,913.882 465.115,878.666 Z" />
<path d="M 237.478,302.86 196.814,302.86 176.482,267.644 196.814,232.429 237.478,232.429 257.809,267.644 Z" />
<path d="M 333.689,247.313 293.025,247.313 272.693,212.097 293.025,176.881 333.689,176.881 354.02,212.097 Z" />
<path d="M 429.9,191.765 389.236,191.765 368.904,156.549 389.236,121.334 429.9,121.334 450.231,156.549 Z" />
<path d="M 581.658,191.765 561.326,156.549 581.658,121.334 622.322,121.334 642.653,156.549 622.322,191.765 Z" />
<path d="M 677.869,247.313 657.537,212.097 677.869,176.881 718.533,176.881 738.864,212.097 718.533,247.313 Z" />
<path d="M 774.08,302.86 753.748,267.644 774.08,232.429 814.744,232.429 835.075,267.644 814.744,302.86 Z" />
<path d="M 80.271,656.476 100.603,621.261 141.267,621.261 161.598,656.476 141.267,691.692 100.603,691.692 Z" />
<path d="M 80.271,545.382 100.603,510.166 141.267,510.166 161.598,545.382 141.267,580.597 100.603,580.597 Z" />
<path d="M 80.271,434.287 100.603,399.071 141.267,399.071 161.598,434.287 141.267,469.502 100.603,469.502 Z" />
<path d="M 80.271,323.192 100.603,287.976 141.267,287.976 161.598,323.192 141.267,358.407 100.603,358.407 Z" />
<path d="M 526.111,65.786 546.442,101.002 526.111,136.218 485.447,136.218 465.115,101.002 485.447,65.786 Z" />
<path d="M 910.955,469.502 870.291,469.502 849.959,434.287 870.291,399.071 910.955,399.071 931.286,434.287 Z" />
<path d="M 910.955,580.597 870.291,580.597 849.959,545.382 870.291,510.166 910.955,510.166 931.286,545.382 Z" />
<path d="M 910.955,691.692 870.291,691.692 849.959,656.476 870.291,621.261 910.955,621.261 931.286,656.476 Z" />
<path d="M 910.955,287.976 931.286,323.192 910.955,358.407 870.291,358.407 849.959,323.192 870.291,287.976 Z" />
<path d="M 485.447,510.166 526.111,510.166 546.442,545.382 526.111,580.597 485.447,580.597 465.115,545.382 Z" />
<path d="M 293.025,913.882 272.693,878.666 293.025,843.451 333.689,843.451 354.02,878.666 333.689,913.882 Z" />
<path d="M 196.814,858.334 176.482,823.119 196.814,787.903 237.478,787.903 257.809,823.119 237.478,858.334 Z" />
<path d="M 100.603,802.787 80.271,767.571 100.603,732.356 141.267,732.356 161.598,767.571 141.267,802.787 Z" />
<path d="M 814.744,858.334 774.08,858.334 753.748,823.119 774.08,787.903 814.744,787.903 835.075,823.119 Z" />
<path d="M 718.533,913.882 677.869,913.882 657.537,878.666 677.869,843.451 718.533,843.451 738.864,878.666 Z" />
<path d="M 910.955,802.787 870.291,802.787 849.959,767.571 870.291,732.356 910.955,732.356 931.286,767.571 Z" />
<path d="M 100.603,176.881 141.267,176.881 161.598,212.097 141.267,247.313 100.603,247.313 80.271,212.097 Z" />
<path d="M 196.814,121.334 237.478,121.334 257.809,156.549 237.478,191.765 196.814,191.765 176.482,156.549 Z" />
<path d="M 293.025,65.786 333.689,65.786 354.02,101.002 333.689,136.218 293.025,136.218 272.693,101.002 Z" />
<path d="M 870.291,65.786 910.955,65.786 931.286,101.002 910.955,136.218 870.291,136.218 849.959,101.002 Z" />
<path d="M 718.533,65.786 738.864,101.002 718.533,136.218 677.869,136.218 657.537,101.002 677.869,65.786 Z" />
<path d="M 814.744,121.334 835.075,156.549 814.744,191.765 774.08,191.765 753.748,156.549 774.08,121.334 Z" />
<path d="M 910.955,176.881 931.286,212.097 910.955,247.313 870.291,247.313 849.959,212.097 870.291,176.881 Z" />
<path d="M 100.603,65.786 141.267,65.786 161.598,101.002 141.267,136.218 100.603,136.218 80.271,101.002 Z" />
<path d="M 100.603,913.882 80.271,878.666 100.603,843.451 141.267,843.451 161.598,878.666 141.267,913.882 Z" />
<path d="M 910.955,913.882 870.291,913.882 849.959,878.666 870.291,843.451 910.955,843.451 931.286,878.666 Z" />
</g>
</svg>
